<svg id="1295962431" data-name="Слой 1" xmlns="http://www.w3.org/2000/svg" viewBox="0 0 117.25 20" class="svg u_1295962431" data-icon-custom="true" data-icon-name="stars.svg" style="fill: rgb(47, 129, 74) !important;"> <title id="1226629361" style="fill: rgb(47, 129, 74) !important;">A row of black stars on a white background.</title> 
 <defs style="fill: rgb(47, 129, 74) !important;"> <style style="fill: rgb(47, 129, 74) !important;">.cls-1-1670365560-1670365560 {
        fill: #00000;
        stroke-width: 0px;
      }</style> 
</defs> 
 <path class="cls-1-1670365560-1670365560" d="M9.58,1.26c.34-.82,1.51-.82,1.86,0l2.03,4.82c.14.34.47.58.85.61l5.27.42c.89.07,1.25,1.17.57,1.75l-4.01,3.4c-.29.24-.41.62-.32.99l1.23,5.08c.21.86-.74,1.54-1.5,1.08l-4.51-2.72c-.32-.19-.73-.19-1.05,0l-4.51,2.72c-.76.46-1.71-.22-1.5-1.08l1.23-5.08c.09-.36-.04-.74-.32-.99L.86,8.85c-.68-.58-.32-1.68.57-1.75l5.27-.42c.38-.03.7-.26.85-.61l2.03-4.82Z" style="fill: rgb(47, 129, 74) !important; stroke-width: 0px !important;"/> 
 <path class="cls-1-1670365560-1670365560" d="M33.58,1.26c.34-.82,1.51-.82,1.86,0l2.03,4.82c.15.34.47.58.85.61l5.27.42c.89.07,1.25,1.17.57,1.75l-4.01,3.4c-.29.24-.41.62-.32.99l1.23,5.08c.21.86-.74,1.54-1.5,1.08l-4.51-2.72c-.32-.19-.73-.19-1.05,0l-4.51,2.72c-.76.46-1.71-.22-1.5-1.08l1.23-5.08c.09-.36-.04-.74-.32-.99l-4.01-3.4c-.68-.58-.32-1.68.57-1.75l5.27-.42c.38-.03.7-.26.85-.61l2.03-4.82Z" style="fill: rgb(47, 129, 74) !important; stroke-width: 0px !important;"/> 
 <path class="cls-1-1670365560-1670365560" d="M57.58,1.26c.34-.82,1.51-.82,1.86,0l2.03,4.82c.15.34.47.58.85.61l5.27.42c.89.07,1.25,1.17.57,1.75l-4.01,3.4c-.29.24-.41.62-.32.99l1.23,5.08c.21.86-.74,1.54-1.5,1.08l-4.51-2.72c-.32-.19-.73-.19-1.05,0l-4.51,2.72c-.76.46-1.71-.22-1.5-1.08l1.23-5.08c.09-.36-.04-.74-.32-.99l-4.01-3.4c-.68-.58-.32-1.68.57-1.75l5.27-.42c.38-.03.7-.26.85-.61l2.03-4.82Z" style="fill: rgb(47, 129, 74) !important; stroke-width: 0px !important;"/> 
 <path class="cls-1-1670365560-1670365560" d="M81.58,1.26c.34-.82,1.51-.82,1.86,0l2.03,4.82c.14.34.47.58.85.61l5.27.42c.89.07,1.25,1.17.57,1.75l-4.01,3.4c-.29.24-.41.62-.32.99l1.23,5.08c.21.86-.74,1.54-1.5,1.08l-4.51-2.72c-.32-.19-.73-.19-1.05,0l-4.51,2.72c-.76.46-1.71-.22-1.5-1.08l1.23-5.08c.09-.36-.04-.74-.32-.99l-4.01-3.4c-.68-.58-.32-1.68.57-1.75l5.27-.42c.38-.03.7-.26.85-.61l2.03-4.82Z" style="fill: rgb(47, 129, 74) !important; stroke-width: 0px !important;"/> 
 <path class="cls-1-1670365560-1670365560" d="M105.58,1.26c.34-.82,1.51-.82,1.86,0l2.03,4.82c.14.34.47.58.85.61l5.27.42c.89.07,1.25,1.17.57,1.75l-4.01,3.4c-.29.24-.41.62-.32.99l1.23,5.08c.21.86-.74,1.54-1.5,1.08l-4.51-2.72c-.32-.19-.73-.19-1.05,0l-4.51,2.72c-.76.46-1.71-.22-1.5-1.08l1.23-5.08c.09-.36-.04-.74-.32-.99l-4.01-3.4c-.68-.58-.32-1.68.57-1.75l5.27-.42c.38-.03.7-.26.85-.61l2.03-4.82Z" style="fill: rgb(47, 129, 74) !important; stroke-width: 0px !important;"/> 
</svg>